solid OpenSCAD_Model
  facet normal 1 0 0
    outer loop
      vertex 8.87676 3.5 4.37324
      vertex 8.87676 5.125 7.62324
      vertex 8.87676 3.5 6.12676
    endloop
  endfacet
  facet normal 1 0 0
    outer loop
      vertex 8.87676 5.125 7.62324
      vertex 8.87676 -3.5 6.12676
      vertex 8.87676 3.5 6.12676
    endloop
  endfacet
  facet normal 1 0 0
    outer loop
      vertex 8.87676 -3.5 6.12676
      vertex 8.87676 -5.125 7.62324
      vertex 8.87676 -3.5 4.37324
    endloop
  endfacet
  facet normal 1 -0 0
    outer loop
      vertex 8.87676 -5.125 7.62324
      vertex 8.87676 -3.5 6.12676
      vertex 8.87676 5.125 7.62324
    endloop
  endfacet
  facet normal 1 0 0
    outer loop
      vertex 8.87676 5.125 7.62324
      vertex 8.87676 3.5 4.37324
      vertex 8.87676 5.125 0
    endloop
  endfacet
  facet normal 1 -0 0
    outer loop
      vertex 8.87676 -3.5 4.37324
      vertex 8.87676 5.125 0
      vertex 8.87676 3.5 4.37324
    endloop
  endfacet
  facet normal 1 0 0
    outer loop
      vertex 8.87676 -3.5 4.37324
      vertex 8.87676 -5.125 0
      vertex 8.87676 5.125 0
    endloop
  endfacet
  facet normal 1 0 0
    outer loop
      vertex 8.87676 -5.125 0
      vertex 8.87676 -3.5 4.37324
      vertex 8.87676 -5.125 7.62324
    endloop
  endfacet
  facet normal -1 0 0
    outer loop
      vertex -8.87676 5.125 0
      vertex -8.87676 3.5 4.37324
      vertex -8.87676 5.125 7.62324
    endloop
  endfacet
  facet normal -1 0 0
    outer loop
      vertex -8.87676 5.125 0
      vertex -8.87676 -3.5 4.37324
      vertex -8.87676 3.5 4.37324
    endloop
  endfacet
  facet normal -1 0 0
    outer loop
      vertex -8.87676 -5.125 7.62324
      vertex -8.87676 -3.5 4.37324
      vertex -8.87676 -5.125 0
    endloop
  endfacet
  facet normal -1 0 0
    outer loop
      vertex -8.87676 -5.125 0
      vertex -8.87676 -3.5 4.37324
      vertex -8.87676 5.125 0
    endloop
  endfacet
  facet normal -1 0 0
    outer loop
      vertex -8.87676 3.5 6.12676
      vertex -8.87676 5.125 7.62324
      vertex -8.87676 3.5 4.37324
    endloop
  endfacet
  facet normal -1 0 0
    outer loop
      vertex -8.87676 -3.5 6.12676
      vertex -8.87676 5.125 7.62324
      vertex -8.87676 3.5 6.12676
    endloop
  endfacet
  facet normal -1 0 0
    outer loop
      vertex -8.87676 -3.5 6.12676
      vertex -8.87676 -5.125 7.62324
      vertex -8.87676 5.125 7.62324
    endloop
  endfacet
  facet normal -1 0 0
    outer loop
      vertex -8.87676 -3.5 4.37324
      vertex -8.87676 -5.125 7.62324
      vertex -8.87676 -3.5 6.12676
    endloop
  endfacet
  facet normal -0.5 0.866026 0
    outer loop
      vertex 0 10.25 4.751
      vertex 0 10.25 0
      vertex -3.68061 8.125 4.751
    endloop
  endfacet
  facet normal -0.5 0.866025 0
    outer loop
      vertex -3.68061 8.125 4.751
      vertex -8.25 5.48686 8.25
      vertex -3.68061 8.125 8.25
    endloop
  endfacet
  facet normal -0.5 0.866025 1.98827e-07
    outer loop
      vertex -8.25 5.48686 8.25
      vertex -3.68061 8.125 4.751
      vertex -8.87676 5.125 7.62324
    endloop
  endfacet
  facet normal -0.5 0.866025 -2.31017e-07
    outer loop
      vertex -8.87676 5.125 0
      vertex -3.68061 8.125 4.751
      vertex 0 10.25 0
    endloop
  endfacet
  facet normal -0.5 0.866025 0
    outer loop
      vertex -3.68061 8.125 4.751
      vertex -8.87676 5.125 0
      vertex -8.87676 5.125 7.62324
    endloop
  endfacet
  facet normal -0.5 -0.866025 5.24562e-08
    outer loop
      vertex 0 -10.25 0
      vertex -8.25 -5.48686 8.25
      vertex -8.87676 -5.125 7.62324
    endloop
  endfacet
  facet normal -0.5 -0.866025 0
    outer loop
      vertex 0 -10.25 0
      vertex -8.87676 -5.125 7.62324
      vertex -8.87676 -5.125 0
    endloop
  endfacet
  facet normal -0.5 -0.866025 0
    outer loop
      vertex -8.25 -5.48686 8.25
      vertex 0 -10.25 0
      vertex 0 -10.25 8.25
    endloop
  endfacet
  facet normal 0.5 -0.866025 0
    outer loop
      vertex 0 -10.25 0
      vertex 8.25 -5.48686 8.25
      vertex 0 -10.25 8.25
    endloop
  endfacet
  facet normal 0.5 -0.866025 5.24562e-08
    outer loop
      vertex 8.25 -5.48686 8.25
      vertex 0 -10.25 0
      vertex 8.87676 -5.125 7.62324
    endloop
  endfacet
  facet normal 0.5 -0.866025 0
    outer loop
      vertex 8.87676 -5.125 7.62324
      vertex 0 -10.25 0
      vertex 8.87676 -5.125 0
    endloop
  endfacet
  facet normal 0 0 1
    outer loop
      vertex -3.68061 8.125 8.25
      vertex -7.79423 4.5 8.25
      vertex -2.59808 7.5 8.25
    endloop
  endfacet
  facet normal 0 0 1
    outer loop
      vertex -7.79423 4.5 8.25
      vertex -8.25 5.48686 8.25
      vertex -7.79423 -4.5 8.25
    endloop
  endfacet
  facet normal -0 0 1
    outer loop
      vertex -8.25 5.48686 8.25
      vertex -7.79423 4.5 8.25
      vertex -3.68061 8.125 8.25
    endloop
  endfacet
  facet normal 0 0 1
    outer loop
      vertex 8.25 5.48686 8.25
      vertex 7.79423 4.5 8.25
      vertex 8.25 -5.48686 8.25
    endloop
  endfacet
  facet normal 0 0 1
    outer loop
      vertex 3.68061 8.125 8.25
      vertex 7.79423 4.5 8.25
      vertex 8.25 5.48686 8.25
    endloop
  endfacet
  facet normal 0 0 1
    outer loop
      vertex 7.79423 4.5 8.25
      vertex 3.68061 8.125 8.25
      vertex 2.59808 7.5 8.25
    endloop
  endfacet
  facet normal -0 0 1
    outer loop
      vertex 7.79423 -4.5 8.25
      vertex 8.25 -5.48686 8.25
      vertex 7.79423 4.5 8.25
    endloop
  endfacet
  facet normal 0 0 1
    outer loop
      vertex 0 -9 8.25
      vertex 8.25 -5.48686 8.25
      vertex 7.79423 -4.5 8.25
    endloop
  endfacet
  facet normal -0 0 1
    outer loop
      vertex 0 -9 8.25
      vertex 0 -10.25 8.25
      vertex 8.25 -5.48686 8.25
    endloop
  endfacet
  facet normal -0 0 1
    outer loop
      vertex -8.25 -5.48686 8.25
      vertex 0 -9 8.25
      vertex -7.79423 -4.5 8.25
    endloop
  endfacet
  facet normal 0 0 1
    outer loop
      vertex 0 -9 8.25
      vertex -8.25 -5.48686 8.25
      vertex 0 -10.25 8.25
    endloop
  endfacet
  facet normal 0 0 1
    outer loop
      vertex -8.25 -5.48686 8.25
      vertex -7.79423 -4.5 8.25
      vertex -8.25 5.48686 8.25
    endloop
  endfacet
  facet normal 0.5 0.866025 1.98827e-07
    outer loop
      vertex 3.68061 8.125 4.751
      vertex 8.25 5.48686 8.25
      vertex 8.87676 5.125 7.62324
    endloop
  endfacet
  facet normal 0.5 0.866025 0
    outer loop
      vertex 8.25 5.48686 8.25
      vertex 3.68061 8.125 4.751
      vertex 3.68061 8.125 8.25
    endloop
  endfacet
  facet normal 0.5 0.866025 -0
    outer loop
      vertex 8.87676 5.125 0
      vertex 3.68061 8.125 4.751
      vertex 8.87676 5.125 7.62324
    endloop
  endfacet
  facet normal 0.5 0.866025 -2.31017e-07
    outer loop
      vertex 0 10.25 0
      vertex 3.68061 8.125 4.751
      vertex 8.87676 5.125 0
    endloop
  endfacet
  facet normal 0.5 0.866026 0
    outer loop
      vertex 3.68061 8.125 4.751
      vertex 0 10.25 0
      vertex 0 10.25 4.751
    endloop
  endfacet
  facet normal 0 0 1
    outer loop
      vertex 8.87676 5.125 0
      vertex 18 0 0
      vertex 17.9645 1.13023 0
    endloop
  endfacet
  facet normal 0 0 1
    outer loop
      vertex 8.87676 5.125 0
      vertex 17.9645 1.13023 0
      vertex 17.8581 2.256 0
    endloop
  endfacet
  facet normal 0 0 1
    outer loop
      vertex 8.87676 -5.125 0
      vertex 18 0 0
      vertex 8.87676 5.125 0
    endloop
  endfacet
  facet normal 0 0 1
    outer loop
      vertex 8.87676 5.125 0
      vertex 17.8581 2.256 0
      vertex 17.6812 3.37286 0
    endloop
  endfacet
  facet normal 0 0 1
    outer loop
      vertex 18 0 0
      vertex 8.87676 -5.125 0
      vertex 17.9645 -1.13023 0
    endloop
  endfacet
  facet normal 0 0 1
    outer loop
      vertex 8.87676 5.125 0
      vertex 17.6812 3.37286 0
      vertex 17.4345 4.47642 0
    endloop
  endfacet
  facet normal 0 0 1
    outer loop
      vertex 17.9645 -1.13023 0
      vertex 8.87676 -5.125 0
      vertex 17.8581 -2.256 0
    endloop
  endfacet
  facet normal -0 0 1
    outer loop
      vertex 8.87676 5.125 0
      vertex 17.4345 4.47642 0
      vertex 17.119 5.56231 0
    endloop
  endfacet
  facet normal 0 0 1
    outer loop
      vertex 17.8581 -2.256 0
      vertex 8.87676 -5.125 0
      vertex 17.6812 -3.37286 0
    endloop
  endfacet
  facet normal 0 0 1
    outer loop
      vertex 8.87676 5.125 0
      vertex 17.119 5.56231 0
      vertex 16.736 6.62624 0
    endloop
  endfacet
  facet normal 0 0 1
    outer loop
      vertex 17.6812 -3.37286 0
      vertex 8.87676 -5.125 0
      vertex 17.4345 -4.47642 0
    endloop
  endfacet
  facet normal 0 0 1
    outer loop
      vertex 8.87676 5.125 0
      vertex 16.736 6.62624 0
      vertex 16.2869 7.66403 0
    endloop
  endfacet
  facet normal 0 0 1
    outer loop
      vertex 17.4345 -4.47642 0
      vertex 8.87676 -5.125 0
      vertex 17.119 -5.56231 0
    endloop
  endfacet
  facet normal 0 0 1
    outer loop
      vertex 8.87676 5.125 0
      vertex 16.2869 7.66403 0
      vertex 15.7735 8.67157 0
    endloop
  endfacet
  facet normal 0 0 1
    outer loop
      vertex 17.119 -5.56231 0
      vertex 8.87676 -5.125 0
      vertex 16.736 -6.62624 0
    endloop
  endfacet
  facet normal 0 0 1
    outer loop
      vertex 8.87676 5.125 0
      vertex 15.7735 8.67157 0
      vertex 15.1979 9.64488 0
    endloop
  endfacet
  facet normal 0 0 1
    outer loop
      vertex 16.736 -6.62624 0
      vertex 8.87676 -5.125 0
      vertex 16.2869 -7.66403 0
    endloop
  endfacet
  facet normal 0 0 1
    outer loop
      vertex 8.87676 5.125 0
      vertex 15.1979 9.64488 0
      vertex 14.5623 10.5801 0
    endloop
  endfacet
  facet normal 0 0 1
    outer loop
      vertex 16.2869 -7.66403 0
      vertex 8.87676 -5.125 0
      vertex 15.7735 -8.67157 0
    endloop
  endfacet
  facet normal 0 0 1
    outer loop
      vertex 8.87676 5.125 0
      vertex 14.5623 10.5801 0
      vertex 13.8692 11.4736 0
    endloop
  endfacet
  facet normal 0 0 1
    outer loop
      vertex 15.7735 -8.67157 0
      vertex 8.87676 -5.125 0
      vertex 15.1979 -9.64488 0
    endloop
  endfacet
  facet normal 0 0 1
    outer loop
      vertex 8.87676 5.125 0
      vertex 13.8692 11.4736 0
      vertex 13.1214 12.3218 0
    endloop
  endfacet
  facet normal 0 0 1
    outer loop
      vertex 15.1979 -9.64488 0
      vertex 8.87676 -5.125 0
      vertex 14.5623 -10.5801 0
    endloop
  endfacet
  facet normal 0 0 1
    outer loop
      vertex 8.87676 5.125 0
      vertex 13.1214 12.3218 0
      vertex 12.3218 13.1214 0
    endloop
  endfacet
  facet normal 0 0 1
    outer loop
      vertex 14.5623 -10.5801 0
      vertex 8.87676 -5.125 0
      vertex 13.8692 -11.4736 0
    endloop
  endfacet
  facet normal 0 0 1
    outer loop
      vertex 8.87676 5.125 0
      vertex 12.3218 13.1214 0
      vertex 11.4736 13.8692 0
    endloop
  endfacet
  facet normal 0 0 1
    outer loop
      vertex 13.8692 -11.4736 0
      vertex 8.87676 -5.125 0
      vertex 13.1214 -12.3218 0
    endloop
  endfacet
  facet normal 0 0 1
    outer loop
      vertex 8.87676 5.125 0
      vertex 11.4736 13.8692 0
      vertex 11.3051 14 0
    endloop
  endfacet
  facet normal 0 0 1
    outer loop
      vertex 13.1214 -12.3218 0
      vertex 8.87676 -5.125 0
      vertex 12.3218 -13.1214 0
    endloop
  endfacet
  facet normal 0 0 1
    outer loop
      vertex 11.4736 -13.8692 0
      vertex 8.87676 -5.125 0
      vertex 10.5801 -14.5623 0
    endloop
  endfacet
  facet normal 0 0 1
    outer loop
      vertex 12.3218 -13.1214 0
      vertex 8.87676 -5.125 0
      vertex 11.4736 -13.8692 0
    endloop
  endfacet
  facet normal 0 0 1
    outer loop
      vertex 11.3051 14 0
      vertex 0 10.25 0
      vertex 8.87676 5.125 0
    endloop
  endfacet
  facet normal -0 0 1
    outer loop
      vertex -18 0 0
      vertex -8.87676 -5.125 0
      vertex -8.87676 5.125 0
    endloop
  endfacet
  facet normal 0 0 1
    outer loop
      vertex -8.87676 -5.125 0
      vertex -10.5801 -14.5623 0
      vertex -9.64488 -15.1979 0
    endloop
  endfacet
  facet normal -0 0 1
    outer loop
      vertex -11.3051 14 0
      vertex 0 10.25 0
      vertex 11.3051 14 0
    endloop
  endfacet
  facet normal 0 0 1
    outer loop
      vertex -11.3051 14 0
      vertex -8.87676 5.125 0
      vertex 0 10.25 0
    endloop
  endfacet
  facet normal -0 0 1
    outer loop
      vertex -11.4736 13.8692 0
      vertex -8.87676 5.125 0
      vertex -11.3051 14 0
    endloop
  endfacet
  facet normal 0 0 1
    outer loop
      vertex -8.87676 5.125 0
      vertex -11.4736 13.8692 0
      vertex -12.3218 13.1214 0
    endloop
  endfacet
  facet normal 0 0 1
    outer loop
      vertex -8.87676 -5.125 0
      vertex -11.4736 -13.8692 0
      vertex -10.5801 -14.5623 0
    endloop
  endfacet
  facet normal -0 0 1
    outer loop
      vertex -13.1214 12.3218 0
      vertex -8.87676 5.125 0
      vertex -12.3218 13.1214 0
    endloop
  endfacet
  facet normal 0 0 1
    outer loop
      vertex -8.87676 -5.125 0
      vertex -12.3218 -13.1214 0
      vertex -11.4736 -13.8692 0
    endloop
  endfacet
  facet normal -0 0 1
    outer loop
      vertex -13.8692 11.4736 0
      vertex -8.87676 5.125 0
      vertex -13.1214 12.3218 0
    endloop
  endfacet
  facet normal 0 0 1
    outer loop
      vertex -8.87676 -5.125 0
      vertex -13.1214 -12.3218 0
      vertex -12.3218 -13.1214 0
    endloop
  endfacet
  facet normal -0 0 1
    outer loop
      vertex -14.5623 10.5801 0
      vertex -8.87676 5.125 0
      vertex -13.8692 11.4736 0
    endloop
  endfacet
  facet normal 0 0 1
    outer loop
      vertex -8.87676 -5.125 0
      vertex -13.8692 -11.4736 0
      vertex -13.1214 -12.3218 0
    endloop
  endfacet
  facet normal -0 0 1
    outer loop
      vertex -15.1979 9.64488 0
      vertex -8.87676 5.125 0
      vertex -14.5623 10.5801 0
    endloop
  endfacet
  facet normal 0 0 1
    outer loop
      vertex -8.87676 -5.125 0
      vertex -14.5623 -10.5801 0
      vertex -13.8692 -11.4736 0
    endloop
  endfacet
  facet normal -0 0 1
    outer loop
      vertex -15.7735 8.67157 0
      vertex -8.87676 5.125 0
      vertex -15.1979 9.64488 0
    endloop
  endfacet
  facet normal 0 0 1
    outer loop
      vertex -8.87676 -5.125 0
      vertex -15.1979 -9.64488 0
      vertex -14.5623 -10.5801 0
    endloop
  endfacet
  facet normal -0 0 1
    outer loop
      vertex -16.2869 7.66403 0
      vertex -8.87676 5.125 0
      vertex -15.7735 8.67157 0
    endloop
  endfacet
  facet normal 0 0 1
    outer loop
      vertex -8.87676 -5.125 0
      vertex -15.7735 -8.67157 0
      vertex -15.1979 -9.64488 0
    endloop
  endfacet
  facet normal -0 0 1
    outer loop
      vertex -16.736 6.62624 0
      vertex -8.87676 5.125 0
      vertex -16.2869 7.66403 0
    endloop
  endfacet
  facet normal 0 0 1
    outer loop
      vertex -8.87676 -5.125 0
      vertex -16.2869 -7.66403 0
      vertex -15.7735 -8.67157 0
    endloop
  endfacet
  facet normal -0 0 1
    outer loop
      vertex -17.119 5.56231 0
      vertex -8.87676 5.125 0
      vertex -16.736 6.62624 0
    endloop
  endfacet
  facet normal 0 0 1
    outer loop
      vertex -8.87676 -5.125 0
      vertex -16.736 -6.62624 0
      vertex -16.2869 -7.66403 0
    endloop
  endfacet
  facet normal 0 0 1
    outer loop
      vertex -17.4345 4.47642 0
      vertex -8.87676 5.125 0
      vertex -17.119 5.56231 0
    endloop
  endfacet
  facet normal 0 0 1
    outer loop
      vertex -8.87676 -5.125 0
      vertex -17.119 -5.56231 0
      vertex -16.736 -6.62624 0
    endloop
  endfacet
  facet normal 0 0 1
    outer loop
      vertex -17.6812 3.37286 0
      vertex -8.87676 5.125 0
      vertex -17.4345 4.47642 0
    endloop
  endfacet
  facet normal 0 0 1
    outer loop
      vertex -8.87676 -5.125 0
      vertex -17.4345 -4.47642 0
      vertex -17.119 -5.56231 0
    endloop
  endfacet
  facet normal 0 0 1
    outer loop
      vertex -17.8581 2.256 0
      vertex -8.87676 5.125 0
      vertex -17.6812 3.37286 0
    endloop
  endfacet
  facet normal 0 0 1
    outer loop
      vertex -8.87676 -5.125 0
      vertex -17.6812 -3.37286 0
      vertex -17.4345 -4.47642 0
    endloop
  endfacet
  facet normal 0 0 1
    outer loop
      vertex -17.9645 1.13023 0
      vertex -8.87676 5.125 0
      vertex -17.8581 2.256 0
    endloop
  endfacet
  facet normal 0 0 1
    outer loop
      vertex -8.87676 -5.125 0
      vertex -17.8581 -2.256 0
      vertex -17.6812 -3.37286 0
    endloop
  endfacet
  facet normal 0 0 1
    outer loop
      vertex -18 0 0
      vertex -8.87676 5.125 0
      vertex -17.9645 1.13023 0
    endloop
  endfacet
  facet normal 0 0 1
    outer loop
      vertex -8.87676 -5.125 0
      vertex -17.9645 -1.13023 0
      vertex -17.8581 -2.256 0
    endloop
  endfacet
  facet normal 0 0 1
    outer loop
      vertex -8.87676 -5.125 0
      vertex -18 0 0
      vertex -17.9645 -1.13023 0
    endloop
  endfacet
  facet normal 0 0 1
    outer loop
      vertex 10.5801 -14.5623 0
      vertex 8.87676 -5.125 0
      vertex 9.64488 -15.1979 0
    endloop
  endfacet
  facet normal 0 0 1
    outer loop
      vertex 8.87676 -5.125 0
      vertex 8.67157 -15.7735 0
      vertex 9.64488 -15.1979 0
    endloop
  endfacet
  facet normal -0 0 1
    outer loop
      vertex 0 -10.25 0
      vertex 8.67157 -15.7735 0
      vertex 8.87676 -5.125 0
    endloop
  endfacet
  facet normal 0 0 1
    outer loop
      vertex 8.67157 -15.7735 0
      vertex 0 -10.25 0
      vertex 7.66403 -16.2869 0
    endloop
  endfacet
  facet normal 0 0 1
    outer loop
      vertex 7.66403 -16.2869 0
      vertex 0 -10.25 0
      vertex 6.62624 -16.736 0
    endloop
  endfacet
  facet normal 0 0 1
    outer loop
      vertex 6.62624 -16.736 0
      vertex 0 -10.25 0
      vertex 5.56231 -17.119 0
    endloop
  endfacet
  facet normal 0 0 1
    outer loop
      vertex 5.56231 -17.119 0
      vertex 0 -10.25 0
      vertex 4.47642 -17.4345 0
    endloop
  endfacet
  facet normal 0 0 1
    outer loop
      vertex 4.47642 -17.4345 0
      vertex 0 -10.25 0
      vertex 3.37286 -17.6812 0
    endloop
  endfacet
  facet normal 0 0 1
    outer loop
      vertex 3.37286 -17.6812 0
      vertex 0 -10.25 0
      vertex 2.256 -17.8581 0
    endloop
  endfacet
  facet normal 0 0 1
    outer loop
      vertex 2.256 -17.8581 0
      vertex 0 -10.25 0
      vertex 1.13023 -17.9645 0
    endloop
  endfacet
  facet normal 0 0 1
    outer loop
      vertex 0 -10.25 0
      vertex 0 -18 0
      vertex 1.13023 -17.9645 0
    endloop
  endfacet
  facet normal 0 0 1
    outer loop
      vertex 0 -10.25 0
      vertex -1.13023 -17.9645 0
      vertex 0 -18 0
    endloop
  endfacet
  facet normal 0 0 1
    outer loop
      vertex 0 -10.25 0
      vertex -2.256 -17.8581 0
      vertex -1.13023 -17.9645 0
    endloop
  endfacet
  facet normal 0 0 1
    outer loop
      vertex 0 -10.25 0
      vertex -3.37286 -17.6812 0
      vertex -2.256 -17.8581 0
    endloop
  endfacet
  facet normal 0 0 1
    outer loop
      vertex 0 -10.25 0
      vertex -4.47642 -17.4345 0
      vertex -3.37286 -17.6812 0
    endloop
  endfacet
  facet normal 0 0 1
    outer loop
      vertex 0 -10.25 0
      vertex -5.56231 -17.119 0
      vertex -4.47642 -17.4345 0
    endloop
  endfacet
  facet normal 0 0 1
    outer loop
      vertex 0 -10.25 0
      vertex -6.62624 -16.736 0
      vertex -5.56231 -17.119 0
    endloop
  endfacet
  facet normal 0 0 1
    outer loop
      vertex 0 -10.25 0
      vertex -7.66403 -16.2869 0
      vertex -6.62624 -16.736 0
    endloop
  endfacet
  facet normal 0 0 1
    outer loop
      vertex 0 -10.25 0
      vertex -8.67157 -15.7735 0
      vertex -7.66403 -16.2869 0
    endloop
  endfacet
  facet normal 0 0 1
    outer loop
      vertex -8.87676 -5.125 0
      vertex -8.67157 -15.7735 0
      vertex 0 -10.25 0
    endloop
  endfacet
  facet normal 0 0 1
    outer loop
      vertex -8.67157 -15.7735 0
      vertex -8.87676 -5.125 0
      vertex -9.64488 -15.1979 0
    endloop
  endfacet
  facet normal 0.995563 0.0940938 0
    outer loop
      vertex 17.9645 1.13023 0
      vertex 17.8581 2.256 -2
      vertex 17.8581 2.256 0
    endloop
  endfacet
  facet normal 0.995563 0.0940938 0
    outer loop
      vertex 17.8581 2.256 -2
      vertex 17.9645 1.13023 0
      vertex 17.9645 1.13023 -2
    endloop
  endfacet
  facet normal -0.975912 -0.218164 0
    outer loop
      vertex -17.4345 -4.47642 -2
      vertex -17.6812 -3.37286 0
      vertex -17.6812 -3.37286 -2
    endloop
  endfacet
  facet normal -0.975912 -0.218164 0
    outer loop
      vertex -17.6812 -3.37286 0
      vertex -17.4345 -4.47642 -2
      vertex -17.4345 -4.47642 0
    endloop
  endfacet
  facet normal -0.995563 0.0940938 0
    outer loop
      vertex -17.9645 1.13023 -2
      vertex -17.8581 2.256 0
      vertex -17.8581 2.256 -2
    endloop
  endfacet
  facet normal -0.995563 0.0940938 0
    outer loop
      vertex -17.8581 2.256 0
      vertex -17.9645 1.13023 -2
      vertex -17.9645 1.13023 0
    endloop
  endfacet
  facet normal 0.707107 -0.707107 0
    outer loop
      vertex 12.3218 -13.1214 0
      vertex 13.1214 -12.3218 -2
      vertex 13.1214 -12.3218 0
    endloop
  endfacet
  facet normal 0.707107 -0.707107 0
    outer loop
      vertex 13.1214 -12.3218 -2
      vertex 12.3218 -13.1214 0
      vertex 12.3218 -13.1214 -2
    endloop
  endfacet
  facet normal -0.960289 0.279007 0
    outer loop
      vertex -17.4345 4.47642 -2
      vertex -17.119 5.56231 0
      vertex -17.119 5.56231 -2
    endloop
  endfacet
  facet normal -0.960289 0.279007 0
    outer loop
      vertex -17.119 5.56231 0
      vertex -17.4345 4.47642 -2
      vertex -17.4345 4.47642 0
    endloop
  endfacet
  facet normal 0.613194 0.789932 -0
    outer loop
      vertex 11.4736 13.8692 -2
      vertex 11.3051 14 0
      vertex 11.4736 13.8692 0
    endloop
  endfacet
  facet normal 0.613194 0.789932 0
    outer loop
      vertex 11.3051 14 0
      vertex 11.4736 13.8692 -2
      vertex 11.3051 14 -2
    endloop
  endfacet
  facet normal -0.940892 -0.338708 0
    outer loop
      vertex -16.736 -6.62624 -2
      vertex -17.119 -5.56231 0
      vertex -17.119 -5.56231 -2
    endloop
  endfacet
  facet normal -0.940892 -0.338708 0
    outer loop
      vertex -17.119 -5.56231 0
      vertex -16.736 -6.62624 -2
      vertex -16.736 -6.62624 0
    endloop
  endfacet
  facet normal -0.995563 -0.0940938 0
    outer loop
      vertex -17.8581 -2.256 -2
      vertex -17.9645 -1.13023 0
      vertex -17.9645 -1.13023 -2
    endloop
  endfacet
  facet normal -0.995563 -0.0940938 0
    outer loop
      vertex -17.9645 -1.13023 0
      vertex -17.8581 -2.256 -2
      vertex -17.8581 -2.256 0
    endloop
  endfacet
  facet normal 0.917752 0.397154 0
    outer loop
      vertex 16.736 6.62624 0
      vertex 16.2869 7.66403 -2
      vertex 16.2869 7.66403 0
    endloop
  endfacet
  facet normal 0.917752 0.397154 0
    outer loop
      vertex 16.2869 7.66403 -2
      vertex 16.736 6.62624 0
      vertex 16.736 6.62624 -2
    endloop
  endfacet
  facet normal -0.890995 -0.454013 0
    outer loop
      vertex -15.7735 -8.67157 -2
      vertex -16.2869 -7.66403 0
      vertex -16.2869 -7.66403 -2
    endloop
  endfacet
  facet normal -0.890995 -0.454013 0
    outer loop
      vertex -16.2869 -7.66403 0
      vertex -15.7735 -8.67157 -2
      vertex -15.7735 -8.67157 0
    endloop
  endfacet
  facet normal 0.890995 -0.454013 0
    outer loop
      vertex 15.7735 -8.67157 0
      vertex 16.2869 -7.66403 -2
      vertex 16.2869 -7.66403 0
    endloop
  endfacet
  facet normal 0.890995 -0.454013 0
    outer loop
      vertex 16.2869 -7.66403 -2
      vertex 15.7735 -8.67157 0
      vertex 15.7735 -8.67157 -2
    endloop
  endfacet
  facet normal 0.987687 0.15644 0
    outer loop
      vertex 17.8581 2.256 0
      vertex 17.6812 3.37286 -2
      vertex 17.6812 3.37286 0
    endloop
  endfacet
  facet normal 0.987687 0.15644 0
    outer loop
      vertex 17.6812 3.37286 -2
      vertex 17.8581 2.256 0
      vertex 17.8581 2.256 -2
    endloop
  endfacet
  facet normal 0.940892 0.338708 0
    outer loop
      vertex 17.119 5.56231 0
      vertex 16.736 6.62624 -2
      vertex 16.736 6.62624 0
    endloop
  endfacet
  facet normal 0.940892 0.338708 0
    outer loop
      vertex 16.736 6.62624 -2
      vertex 17.119 5.56231 0
      vertex 17.119 5.56231 -2
    endloop
  endfacet
  facet normal 0.82707 0.562099 0
    outer loop
      vertex 15.1979 9.64488 0
      vertex 14.5623 10.5801 -2
      vertex 14.5623 10.5801 0
    endloop
  endfacet
  facet normal 0.82707 0.562099 0
    outer loop
      vertex 14.5623 10.5801 -2
      vertex 15.1979 9.64488 0
      vertex 15.1979 9.64488 -2
    endloop
  endfacet
  facet normal 0.750106 0.661317 0
    outer loop
      vertex 13.8692 11.4736 0
      vertex 13.1214 12.3218 -2
      vertex 13.1214 12.3218 0
    endloop
  endfacet
  facet normal 0.750106 0.661317 0
    outer loop
      vertex 13.1214 12.3218 -2
      vertex 13.8692 11.4736 0
      vertex 13.8692 11.4736 -2
    endloop
  endfacet
  facet normal -0.975912 0.218164 0
    outer loop
      vertex -17.6812 3.37286 -2
      vertex -17.4345 4.47642 0
      vertex -17.4345 4.47642 -2
    endloop
  endfacet
  facet normal -0.975912 0.218164 0
    outer loop
      vertex -17.4345 4.47642 0
      vertex -17.6812 3.37286 -2
      vertex -17.6812 3.37286 0
    endloop
  endfacet
  facet normal -0.15644 -0.987687 0
    outer loop
      vertex -3.37286 -17.6812 -2
      vertex -2.256 -17.8581 0
      vertex -3.37286 -17.6812 0
    endloop
  endfacet
  facet normal -0.15644 -0.987687 -0
    outer loop
      vertex -2.256 -17.8581 0
      vertex -3.37286 -17.6812 -2
      vertex -2.256 -17.8581 -2
    endloop
  endfacet
  facet normal -0.218164 -0.975912 0
    outer loop
      vertex -4.47642 -17.4345 -2
      vertex -3.37286 -17.6812 0
      vertex -4.47642 -17.4345 0
    endloop
  endfacet
  facet normal -0.218164 -0.975912 -0
    outer loop
      vertex -3.37286 -17.6812 0
      vertex -4.47642 -17.4345 -2
      vertex -3.37286 -17.6812 -2
    endloop
  endfacet
  facet normal 0.750106 -0.661317 0
    outer loop
      vertex 13.1214 -12.3218 0
      vertex 13.8692 -11.4736 -2
      vertex 13.8692 -11.4736 0
    endloop
  endfacet
  facet normal 0.750106 -0.661317 0
    outer loop
      vertex 13.8692 -11.4736 -2
      vertex 13.1214 -12.3218 0
      vertex 13.1214 -12.3218 -2
    endloop
  endfacet
  facet normal 0.975912 0.218164 0
    outer loop
      vertex 17.6812 3.37286 0
      vertex 17.4345 4.47642 -2
      vertex 17.4345 4.47642 0
    endloop
  endfacet
  facet normal 0.975912 0.218164 0
    outer loop
      vertex 17.4345 4.47642 -2
      vertex 17.6812 3.37286 0
      vertex 17.6812 3.37286 -2
    endloop
  endfacet
  facet normal 0.860747 0.509032 0
    outer loop
      vertex 15.7735 8.67157 0
      vertex 15.1979 9.64488 -2
      vertex 15.1979 9.64488 0
    endloop
  endfacet
  facet normal 0.860747 0.509032 0
    outer loop
      vertex 15.1979 9.64488 -2
      vertex 15.7735 8.67157 0
      vertex 15.7735 8.67157 -2
    endloop
  endfacet
  facet normal -0.999507 0.0313941 0
    outer loop
      vertex -18 0 -2
      vertex -17.9645 1.13023 0
      vertex -17.9645 1.13023 -2
    endloop
  endfacet
  facet normal -0.999507 0.0313941 0
    outer loop
      vertex -17.9645 1.13023 0
      vertex -18 0 -2
      vertex -18 0 0
    endloop
  endfacet
  facet normal 0.999507 0.0313941 0
    outer loop
      vertex 18 0 0
      vertex 17.9645 1.13023 -2
      vertex 17.9645 1.13023 0
    endloop
  endfacet
  facet normal 0.999507 0.0313941 0
    outer loop
      vertex 17.9645 1.13023 -2
      vertex 18 0 0
      vertex 18 0 -2
    endloop
  endfacet
  facet normal 0.562099 -0.82707 0
    outer loop
      vertex 9.64488 -15.1979 -2
      vertex 10.5801 -14.5623 0
      vertex 9.64488 -15.1979 0
    endloop
  endfacet
  facet normal 0.562099 -0.82707 0
    outer loop
      vertex 10.5801 -14.5623 0
      vertex 9.64488 -15.1979 -2
      vertex 10.5801 -14.5623 -2
    endloop
  endfacet
  facet normal 0.987687 -0.15644 0
    outer loop
      vertex 17.6812 -3.37286 0
      vertex 17.8581 -2.256 -2
      vertex 17.8581 -2.256 0
    endloop
  endfacet
  facet normal 0.987687 -0.15644 0
    outer loop
      vertex 17.8581 -2.256 -2
      vertex 17.6812 -3.37286 0
      vertex 17.6812 -3.37286 -2
    endloop
  endfacet
  facet normal 0.960289 -0.279007 0
    outer loop
      vertex 17.119 -5.56231 0
      vertex 17.4345 -4.47642 -2
      vertex 17.4345 -4.47642 0
    endloop
  endfacet
  facet normal 0.960289 -0.279007 0
    outer loop
      vertex 17.4345 -4.47642 -2
      vertex 17.119 -5.56231 0
      vertex 17.119 -5.56231 -2
    endloop
  endfacet
  facet normal -0.860747 0.509032 0
    outer loop
      vertex -15.7735 8.67157 -2
      vertex -15.1979 9.64488 0
      vertex -15.1979 9.64488 -2
    endloop
  endfacet
  facet normal -0.860747 0.509032 0
    outer loop
      vertex -15.1979 9.64488 0
      vertex -15.7735 8.67157 -2
      vertex -15.7735 8.67157 0
    endloop
  endfacet
  facet normal 0.82707 -0.562099 0
    outer loop
      vertex 14.5623 -10.5801 0
      vertex 15.1979 -9.64488 -2
      vertex 15.1979 -9.64488 0
    endloop
  endfacet
  facet normal 0.82707 -0.562099 0
    outer loop
      vertex 15.1979 -9.64488 -2
      vertex 14.5623 -10.5801 0
      vertex 14.5623 -10.5801 -2
    endloop
  endfacet
  facet normal 0.975912 -0.218164 0
    outer loop
      vertex 17.4345 -4.47642 0
      vertex 17.6812 -3.37286 -2
      vertex 17.6812 -3.37286 0
    endloop
  endfacet
  facet normal 0.975912 -0.218164 0
    outer loop
      vertex 17.6812 -3.37286 -2
      vertex 17.4345 -4.47642 0
      vertex 17.4345 -4.47642 -2
    endloop
  endfacet
  facet normal -0.82707 -0.562099 0
    outer loop
      vertex -14.5623 -10.5801 -2
      vertex -15.1979 -9.64488 0
      vertex -15.1979 -9.64488 -2
    endloop
  endfacet
  facet normal -0.82707 -0.562099 0
    outer loop
      vertex -15.1979 -9.64488 0
      vertex -14.5623 -10.5801 -2
      vertex -14.5623 -10.5801 0
    endloop
  endfacet
  facet normal 0.890995 0.454013 0
    outer loop
      vertex 16.2869 7.66403 0
      vertex 15.7735 8.67157 -2
      vertex 15.7735 8.67157 0
    endloop
  endfacet
  facet normal 0.890995 0.454013 0
    outer loop
      vertex 15.7735 8.67157 -2
      vertex 16.2869 7.66403 0
      vertex 16.2869 7.66403 -2
    endloop
  endfacet
  facet normal 0.15644 -0.987687 0
    outer loop
      vertex 2.256 -17.8581 -2
      vertex 3.37286 -17.6812 0
      vertex 2.256 -17.8581 0
    endloop
  endfacet
  facet normal 0.15644 -0.987687 0
    outer loop
      vertex 3.37286 -17.6812 0
      vertex 2.256 -17.8581 -2
      vertex 3.37286 -17.6812 -2
    endloop
  endfacet
  facet normal 0.0313941 -0.999507 0
    outer loop
      vertex 0 -18 -2
      vertex 1.13023 -17.9645 0
      vertex 0 -18 0
    endloop
  endfacet
  facet normal 0.0313941 -0.999507 0
    outer loop
      vertex 1.13023 -17.9645 0
      vertex 0 -18 -2
      vertex 1.13023 -17.9645 -2
    endloop
  endfacet
  facet normal -0.613194 0.789932 0
    outer loop
      vertex -11.3051 14 -2
      vertex -11.4736 13.8692 0
      vertex -11.3051 14 0
    endloop
  endfacet
  facet normal -0.613194 0.789932 0
    outer loop
      vertex -11.4736 13.8692 0
      vertex -11.3051 14 -2
      vertex -11.4736 13.8692 -2
    endloop
  endfacet
  facet normal 0.917752 -0.397154 0
    outer loop
      vertex 16.2869 -7.66403 0
      vertex 16.736 -6.62624 -2
      vertex 16.736 -6.62624 0
    endloop
  endfacet
  facet normal 0.917752 -0.397154 0
    outer loop
      vertex 16.736 -6.62624 -2
      vertex 16.2869 -7.66403 0
      vertex 16.2869 -7.66403 -2
    endloop
  endfacet
  facet normal -0.0940938 -0.995563 0
    outer loop
      vertex -2.256 -17.8581 -2
      vertex -1.13023 -17.9645 0
      vertex -2.256 -17.8581 0
    endloop
  endfacet
  facet normal -0.0940938 -0.995563 -0
    outer loop
      vertex -1.13023 -17.9645 0
      vertex -2.256 -17.8581 -2
      vertex -1.13023 -17.9645 -2
    endloop
  endfacet
  facet normal -0.860747 -0.509032 0
    outer loop
      vertex -15.1979 -9.64488 -2
      vertex -15.7735 -8.67157 0
      vertex -15.7735 -8.67157 -2
    endloop
  endfacet
  facet normal -0.860747 -0.509032 0
    outer loop
      vertex -15.7735 -8.67157 0
      vertex -15.1979 -9.64488 -2
      vertex -15.1979 -9.64488 0
    endloop
  endfacet
  facet normal -0.960289 -0.279007 0
    outer loop
      vertex -17.119 -5.56231 -2
      vertex -17.4345 -4.47642 0
      vertex -17.4345 -4.47642 -2
    endloop
  endfacet
  facet normal -0.960289 -0.279007 0
    outer loop
      vertex -17.4345 -4.47642 0
      vertex -17.119 -5.56231 -2
      vertex -17.119 -5.56231 0
    endloop
  endfacet
  facet normal 0.790142 0.612924 0
    outer loop
      vertex 14.5623 10.5801 0
      vertex 13.8692 11.4736 -2
      vertex 13.8692 11.4736 0
    endloop
  endfacet
  facet normal 0.790142 0.612924 0
    outer loop
      vertex 13.8692 11.4736 -2
      vertex 14.5623 10.5801 0
      vertex 14.5623 10.5801 -2
    endloop
  endfacet
  facet normal 0.999507 -0.0313941 0
    outer loop
      vertex 17.9645 -1.13023 0
      vertex 18 0 -2
      vertex 18 0 0
    endloop
  endfacet
  facet normal 0.999507 -0.0313941 0
    outer loop
      vertex 18 0 -2
      vertex 17.9645 -1.13023 0
      vertex 17.9645 -1.13023 -2
    endloop
  endfacet
  facet normal -0.279007 -0.960289 0
    outer loop
      vertex -5.56231 -17.119 -2
      vertex -4.47642 -17.4345 0
      vertex -5.56231 -17.119 0
    endloop
  endfacet
  facet normal -0.279007 -0.960289 -0
    outer loop
      vertex -4.47642 -17.4345 0
      vertex -5.56231 -17.119 -2
      vertex -4.47642 -17.4345 -2
    endloop
  endfacet
  facet normal -0.750106 0.661317 0
    outer loop
      vertex -13.8692 11.4736 -2
      vertex -13.1214 12.3218 0
      vertex -13.1214 12.3218 -2
    endloop
  endfacet
  facet normal -0.750106 0.661317 0
    outer loop
      vertex -13.1214 12.3218 0
      vertex -13.8692 11.4736 -2
      vertex -13.8692 11.4736 0
    endloop
  endfacet
  facet normal 0.960289 0.279007 0
    outer loop
      vertex 17.4345 4.47642 0
      vertex 17.119 5.56231 -2
      vertex 17.119 5.56231 0
    endloop
  endfacet
  facet normal 0.960289 0.279007 0
    outer loop
      vertex 17.119 5.56231 -2
      vertex 17.4345 4.47642 0
      vertex 17.4345 4.47642 -2
    endloop
  endfacet
  facet normal 0.661317 -0.750106 0
    outer loop
      vertex 11.4736 -13.8692 -2
      vertex 12.3218 -13.1214 0
      vertex 11.4736 -13.8692 0
    endloop
  endfacet
  facet normal 0.661317 -0.750106 0
    outer loop
      vertex 12.3218 -13.1214 0
      vertex 11.4736 -13.8692 -2
      vertex 12.3218 -13.1214 -2
    endloop
  endfacet
  facet normal 0.995563 -0.0940938 0
    outer loop
      vertex 17.8581 -2.256 0
      vertex 17.9645 -1.13023 -2
      vertex 17.9645 -1.13023 0
    endloop
  endfacet
  facet normal 0.995563 -0.0940938 0
    outer loop
      vertex 17.9645 -1.13023 -2
      vertex 17.8581 -2.256 0
      vertex 17.8581 -2.256 -2
    endloop
  endfacet
  facet normal -0.940892 0.338708 0
    outer loop
      vertex -17.119 5.56231 -2
      vertex -16.736 6.62624 0
      vertex -16.736 6.62624 -2
    endloop
  endfacet
  facet normal -0.940892 0.338708 0
    outer loop
      vertex -16.736 6.62624 0
      vertex -17.119 5.56231 -2
      vertex -17.119 5.56231 0
    endloop
  endfacet
  facet normal 0.397154 -0.917752 0
    outer loop
      vertex 6.62624 -16.736 -2
      vertex 7.66403 -16.2869 0
      vertex 6.62624 -16.736 0
    endloop
  endfacet
  facet normal 0.397154 -0.917752 0
    outer loop
      vertex 7.66403 -16.2869 0
      vertex 6.62624 -16.736 -2
      vertex 7.66403 -16.2869 -2
    endloop
  endfacet
  facet normal -0.750106 -0.661317 0
    outer loop
      vertex -13.1214 -12.3218 -2
      vertex -13.8692 -11.4736 0
      vertex -13.8692 -11.4736 -2
    endloop
  endfacet
  facet normal -0.750106 -0.661317 0
    outer loop
      vertex -13.8692 -11.4736 0
      vertex -13.1214 -12.3218 -2
      vertex -13.1214 -12.3218 0
    endloop
  endfacet
  facet normal 0.707107 0.707107 0
    outer loop
      vertex 13.1214 12.3218 0
      vertex 12.3218 13.1214 -2
      vertex 12.3218 13.1214 0
    endloop
  endfacet
  facet normal 0.707107 0.707107 0
    outer loop
      vertex 12.3218 13.1214 -2
      vertex 13.1214 12.3218 0
      vertex 13.1214 12.3218 -2
    endloop
  endfacet
  facet normal -0.999507 -0.0313941 0
    outer loop
      vertex -17.9645 -1.13023 -2
      vertex -18 0 0
      vertex -18 0 -2
    endloop
  endfacet
  facet normal -0.999507 -0.0313941 0
    outer loop
      vertex -18 0 0
      vertex -17.9645 -1.13023 -2
      vertex -17.9645 -1.13023 0
    endloop
  endfacet
  facet normal -0.707107 0.707107 0
    outer loop
      vertex -13.1214 12.3218 -2
      vertex -12.3218 13.1214 0
      vertex -12.3218 13.1214 -2
    endloop
  endfacet
  facet normal -0.707107 0.707107 0
    outer loop
      vertex -12.3218 13.1214 0
      vertex -13.1214 12.3218 -2
      vertex -13.1214 12.3218 0
    endloop
  endfacet
  facet normal 0.218164 -0.975912 0
    outer loop
      vertex 3.37286 -17.6812 -2
      vertex 4.47642 -17.4345 0
      vertex 3.37286 -17.6812 0
    endloop
  endfacet
  facet normal 0.218164 -0.975912 0
    outer loop
      vertex 4.47642 -17.4345 0
      vertex 3.37286 -17.6812 -2
      vertex 4.47642 -17.4345 -2
    endloop
  endfacet
  facet normal 0.940892 -0.338708 0
    outer loop
      vertex 16.736 -6.62624 0
      vertex 17.119 -5.56231 -2
      vertex 17.119 -5.56231 0
    endloop
  endfacet
  facet normal 0.940892 -0.338708 0
    outer loop
      vertex 17.119 -5.56231 -2
      vertex 16.736 -6.62624 0
      vertex 16.736 -6.62624 -2
    endloop
  endfacet
  facet normal 0.509032 -0.860747 0
    outer loop
      vertex 8.67157 -15.7735 -2
      vertex 9.64488 -15.1979 0
      vertex 8.67157 -15.7735 0
    endloop
  endfacet
  facet normal 0.509032 -0.860747 0
    outer loop
      vertex 9.64488 -15.1979 0
      vertex 8.67157 -15.7735 -2
      vertex 9.64488 -15.1979 -2
    endloop
  endfacet
  facet normal 0.860747 -0.509032 0
    outer loop
      vertex 15.1979 -9.64488 0
      vertex 15.7735 -8.67157 -2
      vertex 15.7735 -8.67157 0
    endloop
  endfacet
  facet normal 0.860747 -0.509032 0
    outer loop
      vertex 15.7735 -8.67157 -2
      vertex 15.1979 -9.64488 0
      vertex 15.1979 -9.64488 -2
    endloop
  endfacet
  facet normal -0.661317 0.750106 0
    outer loop
      vertex -11.4736 13.8692 -2
      vertex -12.3218 13.1214 0
      vertex -11.4736 13.8692 0
    endloop
  endfacet
  facet normal -0.661317 0.750106 0
    outer loop
      vertex -12.3218 13.1214 0
      vertex -11.4736 13.8692 -2
      vertex -12.3218 13.1214 -2
    endloop
  endfacet
  facet normal -0.509032 -0.860747 0
    outer loop
      vertex -9.64488 -15.1979 -2
      vertex -8.67157 -15.7735 0
      vertex -9.64488 -15.1979 0
    endloop
  endfacet
  facet normal -0.509032 -0.860747 -0
    outer loop
      vertex -8.67157 -15.7735 0
      vertex -9.64488 -15.1979 -2
      vertex -8.67157 -15.7735 -2
    endloop
  endfacet
  facet normal 0.661317 0.750106 -0
    outer loop
      vertex 12.3218 13.1214 -2
      vertex 11.4736 13.8692 0
      vertex 12.3218 13.1214 0
    endloop
  endfacet
  facet normal 0.661317 0.750106 0
    outer loop
      vertex 11.4736 13.8692 0
      vertex 12.3218 13.1214 -2
      vertex 11.4736 13.8692 -2
    endloop
  endfacet
  facet normal -0.0313941 -0.999507 0
    outer loop
      vertex -1.13023 -17.9645 -2
      vertex 0 -18 0
      vertex -1.13023 -17.9645 0
    endloop
  endfacet
  facet normal -0.0313941 -0.999507 -0
    outer loop
      vertex 0 -18 0
      vertex -1.13023 -17.9645 -2
      vertex 0 -18 -2
    endloop
  endfacet
  facet normal 0.0940938 -0.995563 0
    outer loop
      vertex 1.13023 -17.9645 -2
      vertex 2.256 -17.8581 0
      vertex 1.13023 -17.9645 0
    endloop
  endfacet
  facet normal 0.0940938 -0.995563 0
    outer loop
      vertex 2.256 -17.8581 0
      vertex 1.13023 -17.9645 -2
      vertex 2.256 -17.8581 -2
    endloop
  endfacet
  facet normal -0.987687 0.15644 0
    outer loop
      vertex -17.8581 2.256 -2
      vertex -17.6812 3.37286 0
      vertex -17.6812 3.37286 -2
    endloop
  endfacet
  facet normal -0.987687 0.15644 0
    outer loop
      vertex -17.6812 3.37286 0
      vertex -17.8581 2.256 -2
      vertex -17.8581 2.256 0
    endloop
  endfacet
  facet normal -0.917752 0.397154 0
    outer loop
      vertex -16.736 6.62624 -2
      vertex -16.2869 7.66403 0
      vertex -16.2869 7.66403 -2
    endloop
  endfacet
  facet normal -0.917752 0.397154 0
    outer loop
      vertex -16.2869 7.66403 0
      vertex -16.736 6.62624 -2
      vertex -16.736 6.62624 0
    endloop
  endfacet
  facet normal 0.454013 -0.890995 0
    outer loop
      vertex 7.66403 -16.2869 -2
      vertex 8.67157 -15.7735 0
      vertex 7.66403 -16.2869 0
    endloop
  endfacet
  facet normal 0.454013 -0.890995 0
    outer loop
      vertex 8.67157 -15.7735 0
      vertex 7.66403 -16.2869 -2
      vertex 8.67157 -15.7735 -2
    endloop
  endfacet
  facet normal -0.790142 -0.612924 0
    outer loop
      vertex -13.8692 -11.4736 -2
      vertex -14.5623 -10.5801 0
      vertex -14.5623 -10.5801 -2
    endloop
  endfacet
  facet normal -0.790142 -0.612924 0
    outer loop
      vertex -14.5623 -10.5801 0
      vertex -13.8692 -11.4736 -2
      vertex -13.8692 -11.4736 0
    endloop
  endfacet
  facet normal -0.890995 0.454013 0
    outer loop
      vertex -16.2869 7.66403 -2
      vertex -15.7735 8.67157 0
      vertex -15.7735 8.67157 -2
    endloop
  endfacet
  facet normal -0.890995 0.454013 0
    outer loop
      vertex -15.7735 8.67157 0
      vertex -16.2869 7.66403 -2
      vertex -16.2869 7.66403 0
    endloop
  endfacet
  facet normal -0.790142 0.612924 0
    outer loop
      vertex -14.5623 10.5801 -2
      vertex -13.8692 11.4736 0
      vertex -13.8692 11.4736 -2
    endloop
  endfacet
  facet normal -0.790142 0.612924 0
    outer loop
      vertex -13.8692 11.4736 0
      vertex -14.5623 10.5801 -2
      vertex -14.5623 10.5801 0
    endloop
  endfacet
  facet normal -0.987687 -0.15644 0
    outer loop
      vertex -17.6812 -3.37286 -2
      vertex -17.8581 -2.256 0
      vertex -17.8581 -2.256 -2
    endloop
  endfacet
  facet normal -0.987687 -0.15644 0
    outer loop
      vertex -17.8581 -2.256 0
      vertex -17.6812 -3.37286 -2
      vertex -17.6812 -3.37286 0
    endloop
  endfacet
  facet normal -0.917752 -0.397154 0
    outer loop
      vertex -16.2869 -7.66403 -2
      vertex -16.736 -6.62624 0
      vertex -16.736 -6.62624 -2
    endloop
  endfacet
  facet normal -0.917752 -0.397154 0
    outer loop
      vertex -16.736 -6.62624 0
      vertex -16.2869 -7.66403 -2
      vertex -16.2869 -7.66403 0
    endloop
  endfacet
  facet normal 0.790142 -0.612924 0
    outer loop
      vertex 13.8692 -11.4736 0
      vertex 14.5623 -10.5801 -2
      vertex 14.5623 -10.5801 0
    endloop
  endfacet
  facet normal 0.790142 -0.612924 0
    outer loop
      vertex 14.5623 -10.5801 -2
      vertex 13.8692 -11.4736 0
      vertex 13.8692 -11.4736 -2
    endloop
  endfacet
  facet normal -0.82707 0.562099 0
    outer loop
      vertex -15.1979 9.64488 -2
      vertex -14.5623 10.5801 0
      vertex -14.5623 10.5801 -2
    endloop
  endfacet
  facet normal -0.82707 0.562099 0
    outer loop
      vertex -14.5623 10.5801 0
      vertex -15.1979 9.64488 -2
      vertex -15.1979 9.64488 0
    endloop
  endfacet
  facet normal -0.707107 -0.707107 0
    outer loop
      vertex -12.3218 -13.1214 -2
      vertex -13.1214 -12.3218 0
      vertex -13.1214 -12.3218 -2
    endloop
  endfacet
  facet normal -0.707107 -0.707107 0
    outer loop
      vertex -13.1214 -12.3218 0
      vertex -12.3218 -13.1214 -2
      vertex -12.3218 -13.1214 0
    endloop
  endfacet
  facet normal 0.338708 -0.940892 0
    outer loop
      vertex 5.56231 -17.119 -2
      vertex 6.62624 -16.736 0
      vertex 5.56231 -17.119 0
    endloop
  endfacet
  facet normal 0.338708 -0.940892 0
    outer loop
      vertex 6.62624 -16.736 0
      vertex 5.56231 -17.119 -2
      vertex 6.62624 -16.736 -2
    endloop
  endfacet
  facet normal -0.562099 -0.82707 0
    outer loop
      vertex -10.5801 -14.5623 -2
      vertex -9.64488 -15.1979 0
      vertex -10.5801 -14.5623 0
    endloop
  endfacet
  facet normal -0.562099 -0.82707 -0
    outer loop
      vertex -9.64488 -15.1979 0
      vertex -10.5801 -14.5623 -2
      vertex -9.64488 -15.1979 -2
    endloop
  endfacet
  facet normal -0.338708 -0.940892 0
    outer loop
      vertex -6.62624 -16.736 -2
      vertex -5.56231 -17.119 0
      vertex -6.62624 -16.736 0
    endloop
  endfacet
  facet normal -0.338708 -0.940892 -0
    outer loop
      vertex -5.56231 -17.119 0
      vertex -6.62624 -16.736 -2
      vertex -5.56231 -17.119 -2
    endloop
  endfacet
  facet normal 0 0 -1
    outer loop
      vertex 17.9645 -1.13023 -2
      vertex 17.9645 1.13023 -2
      vertex 18 0 -2
    endloop
  endfacet
  facet normal 0 0 -1
    outer loop
      vertex 17.8581 -2.256 -2
      vertex 17.9645 1.13023 -2
      vertex 17.9645 -1.13023 -2
    endloop
  endfacet
  facet normal 0 0 -1
    outer loop
      vertex 17.8581 -2.256 -2
      vertex 17.8581 2.256 -2
      vertex 17.9645 1.13023 -2
    endloop
  endfacet
  facet normal 0 0 -1
    outer loop
      vertex 17.6812 -3.37286 -2
      vertex 17.8581 2.256 -2
      vertex 17.8581 -2.256 -2
    endloop
  endfacet
  facet normal 0 0 -1
    outer loop
      vertex 17.6812 -3.37286 -2
      vertex 17.6812 3.37286 -2
      vertex 17.8581 2.256 -2
    endloop
  endfacet
  facet normal 0 0 -1
    outer loop
      vertex 17.4345 -4.47642 -2
      vertex 17.6812 3.37286 -2
      vertex 17.6812 -3.37286 -2
    endloop
  endfacet
  facet normal 0 0 -1
    outer loop
      vertex 17.4345 -4.47642 -2
      vertex 17.4345 4.47642 -2
      vertex 17.6812 3.37286 -2
    endloop
  endfacet
  facet normal 0 0 -1
    outer loop
      vertex 17.119 -5.56231 -2
      vertex 17.4345 4.47642 -2
      vertex 17.4345 -4.47642 -2
    endloop
  endfacet
  facet normal 0 0 -1
    outer loop
      vertex 17.119 -5.56231 -2
      vertex 17.119 5.56231 -2
      vertex 17.4345 4.47642 -2
    endloop
  endfacet
  facet normal 0 0 -1
    outer loop
      vertex 16.736 -6.62624 -2
      vertex 17.119 5.56231 -2
      vertex 17.119 -5.56231 -2
    endloop
  endfacet
  facet normal 0 0 -1
    outer loop
      vertex 16.736 -6.62624 -2
      vertex 16.736 6.62624 -2
      vertex 17.119 5.56231 -2
    endloop
  endfacet
  facet normal 0 0 -1
    outer loop
      vertex 16.2869 -7.66403 -2
      vertex 16.736 6.62624 -2
      vertex 16.736 -6.62624 -2
    endloop
  endfacet
  facet normal 0 0 -1
    outer loop
      vertex 16.2869 -7.66403 -2
      vertex 16.2869 7.66403 -2
      vertex 16.736 6.62624 -2
    endloop
  endfacet
  facet normal 0 0 -1
    outer loop
      vertex 15.7735 -8.67157 -2
      vertex 16.2869 7.66403 -2
      vertex 16.2869 -7.66403 -2
    endloop
  endfacet
  facet normal 0 0 -1
    outer loop
      vertex 15.7735 -8.67157 -2
      vertex 15.7735 8.67157 -2
      vertex 16.2869 7.66403 -2
    endloop
  endfacet
  facet normal 0 0 -1
    outer loop
      vertex 15.1979 -9.64488 -2
      vertex 15.7735 8.67157 -2
      vertex 15.7735 -8.67157 -2
    endloop
  endfacet
  facet normal 0 0 -1
    outer loop
      vertex 15.1979 -9.64488 -2
      vertex 15.1979 9.64488 -2
      vertex 15.7735 8.67157 -2
    endloop
  endfacet
  facet normal 0 0 -1
    outer loop
      vertex 14.5623 -10.5801 -2
      vertex 15.1979 9.64488 -2
      vertex 15.1979 -9.64488 -2
    endloop
  endfacet
  facet normal 0 0 -1
    outer loop
      vertex 14.5623 -10.5801 -2
      vertex 14.5623 10.5801 -2
      vertex 15.1979 9.64488 -2
    endloop
  endfacet
  facet normal 0 0 -1
    outer loop
      vertex 13.8692 -11.4736 -2
      vertex 14.5623 10.5801 -2
      vertex 14.5623 -10.5801 -2
    endloop
  endfacet
  facet normal 0 0 -1
    outer loop
      vertex 13.8692 -11.4736 -2
      vertex 13.8692 11.4736 -2
      vertex 14.5623 10.5801 -2
    endloop
  endfacet
  facet normal 0 0 -1
    outer loop
      vertex 13.1214 -12.3218 -2
      vertex 13.8692 11.4736 -2
      vertex 13.8692 -11.4736 -2
    endloop
  endfacet
  facet normal 0 0 -1
    outer loop
      vertex 13.1214 -12.3218 -2
      vertex 13.1214 12.3218 -2
      vertex 13.8692 11.4736 -2
    endloop
  endfacet
  facet normal 0 0 -1
    outer loop
      vertex 12.3218 -13.1214 -2
      vertex 13.1214 12.3218 -2
      vertex 13.1214 -12.3218 -2
    endloop
  endfacet
  facet normal 0 0 -1
    outer loop
      vertex 12.3218 -13.1214 -2
      vertex 12.3218 13.1214 -2
      vertex 13.1214 12.3218 -2
    endloop
  endfacet
  facet normal 0 0 -1
    outer loop
      vertex 11.4736 -13.8692 -2
      vertex 12.3218 13.1214 -2
      vertex 12.3218 -13.1214 -2
    endloop
  endfacet
  facet normal 0 0 -1
    outer loop
      vertex 11.3051 14 -2
      vertex 12.3218 13.1214 -2
      vertex 11.4736 -13.8692 -2
    endloop
  endfacet
  facet normal 0 0 -1
    outer loop
      vertex 12.3218 13.1214 -2
      vertex 11.3051 14 -2
      vertex 11.4736 13.8692 -2
    endloop
  endfacet
  facet normal 0 0 -1
    outer loop
      vertex 10.5801 -14.5623 -2
      vertex 11.3051 14 -2
      vertex 11.4736 -13.8692 -2
    endloop
  endfacet
  facet normal 0 0 -1
    outer loop
      vertex 9.64488 -15.1979 -2
      vertex 11.3051 14 -2
      vertex 10.5801 -14.5623 -2
    endloop
  endfacet
  facet normal 0 0 -1
    outer loop
      vertex 8.67157 -15.7735 -2
      vertex 11.3051 14 -2
      vertex 9.64488 -15.1979 -2
    endloop
  endfacet
  facet normal 0 0 -1
    outer loop
      vertex 7.66403 -16.2869 -2
      vertex 11.3051 14 -2
      vertex 8.67157 -15.7735 -2
    endloop
  endfacet
  facet normal 0 0 -1
    outer loop
      vertex 6.62624 -16.736 -2
      vertex 11.3051 14 -2
      vertex 7.66403 -16.2869 -2
    endloop
  endfacet
  facet normal 0 0 -1
    outer loop
      vertex 5.56231 -17.119 -2
      vertex 11.3051 14 -2
      vertex 6.62624 -16.736 -2
    endloop
  endfacet
  facet normal 0 0 -1
    outer loop
      vertex 4.47642 -17.4345 -2
      vertex 11.3051 14 -2
      vertex 5.56231 -17.119 -2
    endloop
  endfacet
  facet normal 0 0 -1
    outer loop
      vertex 3.37286 -17.6812 -2
      vertex 11.3051 14 -2
      vertex 4.47642 -17.4345 -2
    endloop
  endfacet
  facet normal 0 0 -1
    outer loop
      vertex 2.256 -17.8581 -2
      vertex 11.3051 14 -2
      vertex 3.37286 -17.6812 -2
    endloop
  endfacet
  facet normal 0 0 -1
    outer loop
      vertex 1.13023 -17.9645 -2
      vertex 11.3051 14 -2
      vertex 2.256 -17.8581 -2
    endloop
  endfacet
  facet normal 0 0 -1
    outer loop
      vertex 0 -18 -2
      vertex 11.3051 14 -2
      vertex 1.13023 -17.9645 -2
    endloop
  endfacet
  facet normal 0 0 -1
    outer loop
      vertex -1.13023 -17.9645 -2
      vertex 11.3051 14 -2
      vertex 0 -18 -2
    endloop
  endfacet
  facet normal 0 0 -1
    outer loop
      vertex -2.256 -17.8581 -2
      vertex 11.3051 14 -2
      vertex -1.13023 -17.9645 -2
    endloop
  endfacet
  facet normal 0 0 -1
    outer loop
      vertex -3.37286 -17.6812 -2
      vertex 11.3051 14 -2
      vertex -2.256 -17.8581 -2
    endloop
  endfacet
  facet normal 0 0 -1
    outer loop
      vertex -4.47642 -17.4345 -2
      vertex 11.3051 14 -2
      vertex -3.37286 -17.6812 -2
    endloop
  endfacet
  facet normal 0 0 -1
    outer loop
      vertex -5.56231 -17.119 -2
      vertex 11.3051 14 -2
      vertex -4.47642 -17.4345 -2
    endloop
  endfacet
  facet normal 0 0 -1
    outer loop
      vertex -6.62624 -16.736 -2
      vertex 11.3051 14 -2
      vertex -5.56231 -17.119 -2
    endloop
  endfacet
  facet normal 0 0 -1
    outer loop
      vertex -7.66403 -16.2869 -2
      vertex 11.3051 14 -2
      vertex -6.62624 -16.736 -2
    endloop
  endfacet
  facet normal 0 0 -1
    outer loop
      vertex -8.67157 -15.7735 -2
      vertex 11.3051 14 -2
      vertex -7.66403 -16.2869 -2
    endloop
  endfacet
  facet normal 0 0 -1
    outer loop
      vertex -9.64488 -15.1979 -2
      vertex 11.3051 14 -2
      vertex -8.67157 -15.7735 -2
    endloop
  endfacet
  facet normal 0 0 -1
    outer loop
      vertex -10.5801 -14.5623 -2
      vertex 11.3051 14 -2
      vertex -9.64488 -15.1979 -2
    endloop
  endfacet
  facet normal 0 0 -1
    outer loop
      vertex -10.5801 -14.5623 -2
      vertex -11.3051 14 -2
      vertex 11.3051 14 -2
    endloop
  endfacet
  facet normal 0 0 -1
    outer loop
      vertex -11.4736 -13.8692 -2
      vertex -11.3051 14 -2
      vertex -10.5801 -14.5623 -2
    endloop
  endfacet
  facet normal 0 0 -1
    outer loop
      vertex -12.3218 -13.1214 -2
      vertex -11.3051 14 -2
      vertex -11.4736 -13.8692 -2
    endloop
  endfacet
  facet normal 0 0 -1
    outer loop
      vertex -12.3218 13.1214 -2
      vertex -11.3051 14 -2
      vertex -12.3218 -13.1214 -2
    endloop
  endfacet
  facet normal 0 0 -1
    outer loop
      vertex -11.3051 14 -2
      vertex -12.3218 13.1214 -2
      vertex -11.4736 13.8692 -2
    endloop
  endfacet
  facet normal 0 0 -1
    outer loop
      vertex -13.1214 -12.3218 -2
      vertex -12.3218 13.1214 -2
      vertex -12.3218 -13.1214 -2
    endloop
  endfacet
  facet normal 0 0 -1
    outer loop
      vertex -13.1214 -12.3218 -2
      vertex -13.1214 12.3218 -2
      vertex -12.3218 13.1214 -2
    endloop
  endfacet
  facet normal 0 0 -1
    outer loop
      vertex -13.8692 -11.4736 -2
      vertex -13.1214 12.3218 -2
      vertex -13.1214 -12.3218 -2
    endloop
  endfacet
  facet normal 0 0 -1
    outer loop
      vertex -13.8692 -11.4736 -2
      vertex -13.8692 11.4736 -2
      vertex -13.1214 12.3218 -2
    endloop
  endfacet
  facet normal 0 0 -1
    outer loop
      vertex -14.5623 -10.5801 -2
      vertex -13.8692 11.4736 -2
      vertex -13.8692 -11.4736 -2
    endloop
  endfacet
  facet normal 0 0 -1
    outer loop
      vertex -14.5623 -10.5801 -2
      vertex -14.5623 10.5801 -2
      vertex -13.8692 11.4736 -2
    endloop
  endfacet
  facet normal 0 0 -1
    outer loop
      vertex -15.1979 -9.64488 -2
      vertex -14.5623 10.5801 -2
      vertex -14.5623 -10.5801 -2
    endloop
  endfacet
  facet normal 0 0 -1
    outer loop
      vertex -15.1979 -9.64488 -2
      vertex -15.1979 9.64488 -2
      vertex -14.5623 10.5801 -2
    endloop
  endfacet
  facet normal 0 0 -1
    outer loop
      vertex -15.7735 -8.67157 -2
      vertex -15.1979 9.64488 -2
      vertex -15.1979 -9.64488 -2
    endloop
  endfacet
  facet normal 0 0 -1
    outer loop
      vertex -15.7735 -8.67157 -2
      vertex -15.7735 8.67157 -2
      vertex -15.1979 9.64488 -2
    endloop
  endfacet
  facet normal 0 0 -1
    outer loop
      vertex -16.2869 -7.66403 -2
      vertex -15.7735 8.67157 -2
      vertex -15.7735 -8.67157 -2
    endloop
  endfacet
  facet normal 0 0 -1
    outer loop
      vertex -16.2869 -7.66403 -2
      vertex -16.2869 7.66403 -2
      vertex -15.7735 8.67157 -2
    endloop
  endfacet
  facet normal 0 0 -1
    outer loop
      vertex -16.736 -6.62624 -2
      vertex -16.2869 7.66403 -2
      vertex -16.2869 -7.66403 -2
    endloop
  endfacet
  facet normal 0 0 -1
    outer loop
      vertex -16.736 -6.62624 -2
      vertex -16.736 6.62624 -2
      vertex -16.2869 7.66403 -2
    endloop
  endfacet
  facet normal 0 0 -1
    outer loop
      vertex -17.119 -5.56231 -2
      vertex -16.736 6.62624 -2
      vertex -16.736 -6.62624 -2
    endloop
  endfacet
  facet normal 0 0 -1
    outer loop
      vertex -17.119 -5.56231 -2
      vertex -17.119 5.56231 -2
      vertex -16.736 6.62624 -2
    endloop
  endfacet
  facet normal 0 0 -1
    outer loop
      vertex -17.4345 -4.47642 -2
      vertex -17.119 5.56231 -2
      vertex -17.119 -5.56231 -2
    endloop
  endfacet
  facet normal 0 0 -1
    outer loop
      vertex -17.4345 -4.47642 -2
      vertex -17.4345 4.47642 -2
      vertex -17.119 5.56231 -2
    endloop
  endfacet
  facet normal 0 0 -1
    outer loop
      vertex -17.6812 -3.37286 -2
      vertex -17.4345 4.47642 -2
      vertex -17.4345 -4.47642 -2
    endloop
  endfacet
  facet normal 0 0 -1
    outer loop
      vertex -17.6812 -3.37286 -2
      vertex -17.6812 3.37286 -2
      vertex -17.4345 4.47642 -2
    endloop
  endfacet
  facet normal 0 0 -1
    outer loop
      vertex -17.8581 -2.256 -2
      vertex -17.6812 3.37286 -2
      vertex -17.6812 -3.37286 -2
    endloop
  endfacet
  facet normal 0 0 -1
    outer loop
      vertex -17.8581 -2.256 -2
      vertex -17.8581 2.256 -2
      vertex -17.6812 3.37286 -2
    endloop
  endfacet
  facet normal 0 0 -1
    outer loop
      vertex -17.9645 -1.13023 -2
      vertex -17.8581 2.256 -2
      vertex -17.8581 -2.256 -2
    endloop
  endfacet
  facet normal 0 0 -1
    outer loop
      vertex -17.9645 -1.13023 -2
      vertex -17.9645 1.13023 -2
      vertex -17.8581 2.256 -2
    endloop
  endfacet
  facet normal 0 -0 -1
    outer loop
      vertex -17.9645 1.13023 -2
      vertex -17.9645 -1.13023 -2
      vertex -18 0 -2
    endloop
  endfacet
  facet normal 0.279007 -0.960289 0
    outer loop
      vertex 4.47642 -17.4345 -2
      vertex 5.56231 -17.119 0
      vertex 4.47642 -17.4345 0
    endloop
  endfacet
  facet normal 0.279007 -0.960289 0
    outer loop
      vertex 5.56231 -17.119 0
      vertex 4.47642 -17.4345 -2
      vertex 5.56231 -17.119 -2
    endloop
  endfacet
  facet normal -0.454013 -0.890995 0
    outer loop
      vertex -8.67157 -15.7735 -2
      vertex -7.66403 -16.2869 0
      vertex -8.67157 -15.7735 0
    endloop
  endfacet
  facet normal -0.454013 -0.890995 -0
    outer loop
      vertex -7.66403 -16.2869 0
      vertex -8.67157 -15.7735 -2
      vertex -7.66403 -16.2869 -2
    endloop
  endfacet
  facet normal 0.612924 -0.790142 0
    outer loop
      vertex 10.5801 -14.5623 -2
      vertex 11.4736 -13.8692 0
      vertex 10.5801 -14.5623 0
    endloop
  endfacet
  facet normal 0.612924 -0.790142 0
    outer loop
      vertex 11.4736 -13.8692 0
      vertex 10.5801 -14.5623 -2
      vertex 11.4736 -13.8692 -2
    endloop
  endfacet
  facet normal -0.661317 -0.750106 0
    outer loop
      vertex -12.3218 -13.1214 -2
      vertex -11.4736 -13.8692 0
      vertex -12.3218 -13.1214 0
    endloop
  endfacet
  facet normal -0.661317 -0.750106 -0
    outer loop
      vertex -11.4736 -13.8692 0
      vertex -12.3218 -13.1214 -2
      vertex -11.4736 -13.8692 -2
    endloop
  endfacet
  facet normal -0.612924 -0.790142 0
    outer loop
      vertex -11.4736 -13.8692 -2
      vertex -10.5801 -14.5623 0
      vertex -11.4736 -13.8692 0
    endloop
  endfacet
  facet normal -0.612924 -0.790142 -0
    outer loop
      vertex -10.5801 -14.5623 0
      vertex -11.4736 -13.8692 -2
      vertex -10.5801 -14.5623 -2
    endloop
  endfacet
  facet normal -0.397154 -0.917752 0
    outer loop
      vertex -7.66403 -16.2869 -2
      vertex -6.62624 -16.736 0
      vertex -7.66403 -16.2869 0
    endloop
  endfacet
  facet normal -0.397154 -0.917752 -0
    outer loop
      vertex -6.62624 -16.736 0
      vertex -7.66403 -16.2869 -2
      vertex -6.62624 -16.736 -2
    endloop
  endfacet
  facet normal 1 -0 0
    outer loop
      vertex 4.1 -4.5 8.3
      vertex 4.1 4.5 4.751
      vertex 4.1 4.5 8.3
    endloop
  endfacet
  facet normal 1 0 0
    outer loop
      vertex 4.1 4.5 4.751
      vertex 4.1 -4.5 8.3
      vertex 4.1 -4.5 4.751
    endloop
  endfacet
  facet normal -0 0 1
    outer loop
      vertex 2.3 4.5 8.3
      vertex 4.1 -4.5 8.3
      vertex 4.1 4.5 8.3
    endloop
  endfacet
  facet normal 0 0 1
    outer loop
      vertex 4.1 -4.5 8.3
      vertex 2.3 4.5 8.3
      vertex 2.3 -4.5 8.3
    endloop
  endfacet
  facet normal -1 0 0
    outer loop
      vertex 2.3 -4.5 4.751
      vertex 2.3 4.5 8.3
      vertex 2.3 4.5 4.751
    endloop
  endfacet
  facet normal -1 -0 0
    outer loop
      vertex 2.3 4.5 8.3
      vertex 2.3 -4.5 4.751
      vertex 2.3 -4.5 8.3
    endloop
  endfacet
  facet normal 0 1 -0
    outer loop
      vertex 4.1 4.5 4.751
      vertex 2.3 4.5 8.3
      vertex 4.1 4.5 8.3
    endloop
  endfacet
  facet normal 0 1 0
    outer loop
      vertex 2.3 4.5 8.3
      vertex 4.1 4.5 4.751
      vertex 2.3 4.5 4.751
    endloop
  endfacet
  facet normal 0 -1 0
    outer loop
      vertex 2.3 -4.5 4.751
      vertex 4.1 -4.5 8.3
      vertex 2.3 -4.5 8.3
    endloop
  endfacet
  facet normal 0 -1 -0
    outer loop
      vertex 4.1 -4.5 8.3
      vertex 2.3 -4.5 4.751
      vertex 4.1 -4.5 4.751
    endloop
  endfacet
  facet normal 1 -0 0
    outer loop
      vertex -2.3 -4.5 8.3
      vertex -2.3 4.5 4.751
      vertex -2.3 4.5 8.3
    endloop
  endfacet
  facet normal 1 0 0
    outer loop
      vertex -2.3 4.5 4.751
      vertex -2.3 -4.5 8.3
      vertex -2.3 -4.5 4.751
    endloop
  endfacet
  facet normal -0 0 1
    outer loop
      vertex -4.1 4.5 8.3
      vertex -2.3 -4.5 8.3
      vertex -2.3 4.5 8.3
    endloop
  endfacet
  facet normal 0 0 1
    outer loop
      vertex -2.3 -4.5 8.3
      vertex -4.1 4.5 8.3
      vertex -4.1 -4.5 8.3
    endloop
  endfacet
  facet normal -1 0 0
    outer loop
      vertex -4.1 -4.5 4.751
      vertex -4.1 4.5 8.3
      vertex -4.1 4.5 4.751
    endloop
  endfacet
  facet normal -1 -0 0
    outer loop
      vertex -4.1 4.5 8.3
      vertex -4.1 -4.5 4.751
      vertex -4.1 -4.5 8.3
    endloop
  endfacet
  facet normal 0 1 -0
    outer loop
      vertex -2.3 4.5 4.751
      vertex -4.1 4.5 8.3
      vertex -2.3 4.5 8.3
    endloop
  endfacet
  facet normal 0 1 0
    outer loop
      vertex -4.1 4.5 8.3
      vertex -2.3 4.5 4.751
      vertex -4.1 4.5 4.751
    endloop
  endfacet
  facet normal 0 -1 0
    outer loop
      vertex -4.1 -4.5 4.751
      vertex -2.3 -4.5 8.3
      vertex -4.1 -4.5 8.3
    endloop
  endfacet
  facet normal 0 -1 -0
    outer loop
      vertex -2.3 -4.5 8.3
      vertex -4.1 -4.5 4.751
      vertex -2.3 -4.5 4.751
    endloop
  endfacet
  facet normal 0.500001 0.866025 -0
    outer loop
      vertex -2.59808 7.5 4.751
      vertex -3.68061 8.125 8.25
      vertex -2.59808 7.5 8.25
    endloop
  endfacet
  facet normal 0.500001 0.866025 0
    outer loop
      vertex -3.68061 8.125 8.25
      vertex -2.59808 7.5 4.751
      vertex -3.68061 8.125 4.751
    endloop
  endfacet
  facet normal -0.500001 0.866025 0
    outer loop
      vertex 3.68061 8.125 4.751
      vertex 2.59808 7.5 8.25
      vertex 3.68061 8.125 8.25
    endloop
  endfacet
  facet normal -0.500001 0.866025 0
    outer loop
      vertex 2.59808 7.5 8.25
      vertex 3.68061 8.125 4.751
      vertex 2.59808 7.5 4.751
    endloop
  endfacet
  facet normal 0 0 1
    outer loop
      vertex 2.3 4.5 4.751
      vertex 1.25 7 4.751
      vertex 2.3 -4.5 4.751
    endloop
  endfacet
  facet normal 0 0 1
    outer loop
      vertex 2.59808 7.5 4.751
      vertex 1.25 7 4.751
      vertex 2.3 4.5 4.751
    endloop
  endfacet
  facet normal 0 0 1
    outer loop
      vertex 0 10.25 4.751
      vertex 2.59808 7.5 4.751
      vertex 3.68061 8.125 4.751
    endloop
  endfacet
  facet normal 0 0 1
    outer loop
      vertex 2.59808 7.5 4.751
      vertex 0 10.25 4.751
      vertex 1.25 7 4.751
    endloop
  endfacet
  facet normal 0 0 1
    outer loop
      vertex 0 10.25 4.751
      vertex -1.25 7 4.751
      vertex 1.25 7 4.751
    endloop
  endfacet
  facet normal 0 0 1
    outer loop
      vertex -2.3 -4.5 4.751
      vertex -1.25 7 4.751
      vertex -2.3 4.5 4.751
    endloop
  endfacet
  facet normal -0 0 1
    outer loop
      vertex -2.59808 7.5 4.751
      vertex -1.25 7 4.751
      vertex 0 10.25 4.751
    endloop
  endfacet
  facet normal 0 0 1
    outer loop
      vertex -1.25 7 4.751
      vertex -2.59808 7.5 4.751
      vertex -2.3 4.5 4.751
    endloop
  endfacet
  facet normal 0 -0 1
    outer loop
      vertex -2.59808 7.5 4.751
      vertex 0 10.25 4.751
      vertex -3.68061 8.125 4.751
    endloop
  endfacet
  facet normal 0 0 1
    outer loop
      vertex 7.79423 4.5 4.751
      vertex 4.1 4.5 4.751
      vertex 7.79423 -4.5 4.751
    endloop
  endfacet
  facet normal 0 0 1
    outer loop
      vertex 2.59808 7.5 4.751
      vertex 4.1 4.5 4.751
      vertex 7.79423 4.5 4.751
    endloop
  endfacet
  facet normal 0 0 1
    outer loop
      vertex 4.1 4.5 4.751
      vertex 2.59808 7.5 4.751
      vertex 2.3 4.5 4.751
    endloop
  endfacet
  facet normal 0 0 1
    outer loop
      vertex 4.1 -4.5 4.751
      vertex 7.79423 -4.5 4.751
      vertex 4.1 4.5 4.751
    endloop
  endfacet
  facet normal 0 0 1
    outer loop
      vertex 1.25 -8 4.751
      vertex 4.1 -4.5 4.751
      vertex 2.3 -4.5 4.751
    endloop
  endfacet
  facet normal 0 0 1
    outer loop
      vertex 1.25 -8 4.751
      vertex 2.3 -4.5 4.751
      vertex 1.25 7 4.751
    endloop
  endfacet
  facet normal -0 0 1
    outer loop
      vertex 4.1 -4.5 4.751
      vertex 1.25 -8 4.751
      vertex 7.79423 -4.5 4.751
    endloop
  endfacet
  facet normal -0 0 1
    outer loop
      vertex 1.25 -8 4.751
      vertex 0 -9 4.751
      vertex 7.79423 -4.5 4.751
    endloop
  endfacet
  facet normal -0 0 1
    outer loop
      vertex -1.25 -8 4.751
      vertex 0 -9 4.751
      vertex 1.25 -8 4.751
    endloop
  endfacet
  facet normal 0 0 1
    outer loop
      vertex -1.25 7 4.751
      vertex -2.3 -4.5 4.751
      vertex -1.25 -8 4.751
    endloop
  endfacet
  facet normal -0 0 1
    outer loop
      vertex -4.1 -4.5 4.751
      vertex -1.25 -8 4.751
      vertex -2.3 -4.5 4.751
    endloop
  endfacet
  facet normal 0 0 1
    outer loop
      vertex -1.25 -8 4.751
      vertex -7.79423 -4.5 4.751
      vertex 0 -9 4.751
    endloop
  endfacet
  facet normal 0 0 1
    outer loop
      vertex -4.1 -4.5 4.751
      vertex -7.79423 -4.5 4.751
      vertex -1.25 -8 4.751
    endloop
  endfacet
  facet normal 0 0 1
    outer loop
      vertex -7.79423 -4.5 4.751
      vertex -4.1 -4.5 4.751
      vertex -7.79423 4.5 4.751
    endloop
  endfacet
  facet normal 0 0 1
    outer loop
      vertex -2.59808 7.5 4.751
      vertex -4.1 4.5 4.751
      vertex -2.3 4.5 4.751
    endloop
  endfacet
  facet normal 0 0 1
    outer loop
      vertex -4.1 4.5 4.751
      vertex -7.79423 4.5 4.751
      vertex -4.1 -4.5 4.751
    endloop
  endfacet
  facet normal 0 0 1
    outer loop
      vertex -7.79423 4.5 4.751
      vertex -4.1 4.5 4.751
      vertex -2.59808 7.5 4.751
    endloop
  endfacet
  facet normal -1 0 0
    outer loop
      vertex 7.79423 -4.5 4.751
      vertex 7.79423 4.5 8.25
      vertex 7.79423 4.5 4.751
    endloop
  endfacet
  facet normal -1 -0 0
    outer loop
      vertex 7.79423 4.5 8.25
      vertex 7.79423 -4.5 4.751
      vertex 7.79423 -4.5 8.25
    endloop
  endfacet
  facet normal 1 -0 0
    outer loop
      vertex -7.79423 -4.5 8.25
      vertex -7.79423 4.5 4.751
      vertex -7.79423 4.5 8.25
    endloop
  endfacet
  facet normal 1 0 0
    outer loop
      vertex -7.79423 4.5 4.751
      vertex -7.79423 -4.5 8.25
      vertex -7.79423 -4.5 4.751
    endloop
  endfacet
  facet normal 0.5 -0.866025 0
    outer loop
      vertex -7.79423 4.5 4.751
      vertex -2.59808 7.5 8.25
      vertex -7.79423 4.5 8.25
    endloop
  endfacet
  facet normal 0.5 -0.866025 0
    outer loop
      vertex -2.59808 7.5 8.25
      vertex -7.79423 4.5 4.751
      vertex -2.59808 7.5 4.751
    endloop
  endfacet
  facet normal 0.5 0.866025 -0
    outer loop
      vertex 0 -9 4.751
      vertex -7.79423 -4.5 8.25
      vertex 0 -9 8.25
    endloop
  endfacet
  facet normal 0.5 0.866025 0
    outer loop
      vertex -7.79423 -4.5 8.25
      vertex 0 -9 4.751
      vertex -7.79423 -4.5 4.751
    endloop
  endfacet
  facet normal -0.5 0.866025 0
    outer loop
      vertex 7.79423 -4.5 4.751
      vertex 0 -9 8.25
      vertex 7.79423 -4.5 8.25
    endloop
  endfacet
  facet normal -0.5 0.866025 0
    outer loop
      vertex 0 -9 8.25
      vertex 7.79423 -4.5 4.751
      vertex 0 -9 4.751
    endloop
  endfacet
  facet normal -0.5 -0.866025 0
    outer loop
      vertex 2.59808 7.5 4.751
      vertex 7.79423 4.5 8.25
      vertex 2.59808 7.5 8.25
    endloop
  endfacet
  facet normal -0.5 -0.866025 -0
    outer loop
      vertex 7.79423 4.5 8.25
      vertex 2.59808 7.5 4.751
      vertex 7.79423 4.5 4.751
    endloop
  endfacet
  facet normal 0.707107 -0 0.707107
    outer loop
      vertex 8 -3.5 5.25
      vertex 8.87676 3.5 4.37324
      vertex 8 3.5 5.25
    endloop
  endfacet
  facet normal 0.707107 0 0.707107
    outer loop
      vertex 8.87676 3.5 4.37324
      vertex 8 -3.5 5.25
      vertex 8.87676 -3.5 4.37324
    endloop
  endfacet
  facet normal 0 -1 0
    outer loop
      vertex 8.87676 3.5 4.37324
      vertex 8.87676 3.5 6.12676
      vertex 8 3.5 5.25
    endloop
  endfacet
  facet normal 0.707107 0 -0.707107
    outer loop
      vertex 8.87676 -3.5 6.12676
      vertex 8 3.5 5.25
      vertex 8.87676 3.5 6.12676
    endloop
  endfacet
  facet normal 0.707107 0 -0.707107
    outer loop
      vertex 8 3.5 5.25
      vertex 8.87676 -3.5 6.12676
      vertex 8 -3.5 5.25
    endloop
  endfacet
  facet normal 0 1 0
    outer loop
      vertex 8.87676 -3.5 6.12676
      vertex 8.87676 -3.5 4.37324
      vertex 8 -3.5 5.25
    endloop
  endfacet
  facet normal 0 1 0
    outer loop
      vertex -8.87676 -3.5 6.12676
      vertex -8 -3.5 5.25
      vertex -8.87676 -3.5 4.37324
    endloop
  endfacet
  facet normal -0.707107 0 0.707107
    outer loop
      vertex -8.87676 -3.5 4.37324
      vertex -8 3.5 5.25
      vertex -8.87676 3.5 4.37324
    endloop
  endfacet
  facet normal -0.707107 0 0.707107
    outer loop
      vertex -8 3.5 5.25
      vertex -8.87676 -3.5 4.37324
      vertex -8 -3.5 5.25
    endloop
  endfacet
  facet normal -0.707107 0 -0.707107
    outer loop
      vertex -8 -3.5 5.25
      vertex -8.87676 3.5 6.12676
      vertex -8 3.5 5.25
    endloop
  endfacet
  facet normal -0.707107 -0 -0.707107
    outer loop
      vertex -8.87676 3.5 6.12676
      vertex -8 -3.5 5.25
      vertex -8.87676 -3.5 6.12676
    endloop
  endfacet
  facet normal -0 -1 0
    outer loop
      vertex -8 3.5 5.25
      vertex -8.87676 3.5 6.12676
      vertex -8.87676 3.5 4.37324
    endloop
  endfacet
  facet normal 0.707107 0 0.707107
    outer loop
      vertex 8.25 5.48686 8.25
      vertex 8.87676 -5.125 7.62324
      vertex 8.87676 5.125 7.62324
    endloop
  endfacet
  facet normal 0.707107 0 0.707107
    outer loop
      vertex 8.87676 -5.125 7.62324
      vertex 8.25 5.48686 8.25
      vertex 8.25 -5.48686 8.25
    endloop
  endfacet
  facet normal -0.707107 0 0.707107
    outer loop
      vertex -8.87676 -5.125 7.62324
      vertex -8.25 5.48686 8.25
      vertex -8.87676 5.125 7.62324
    endloop
  endfacet
  facet normal -0.707107 0 0.707107
    outer loop
      vertex -8.25 5.48686 8.25
      vertex -8.87676 -5.125 7.62324
      vertex -8.25 -5.48686 8.25
    endloop
  endfacet
  facet normal -1 0 0
    outer loop
      vertex 1.25 -8 3.051
      vertex 1.25 7 4.751
      vertex 1.25 7 3.051
    endloop
  endfacet
  facet normal -1 -0 0
    outer loop
      vertex 1.25 7 4.751
      vertex 1.25 -8 3.051
      vertex 1.25 -8 4.751
    endloop
  endfacet
  facet normal -0 0 1
    outer loop
      vertex -1.25 7 3.051
      vertex 1.25 -8 3.051
      vertex 1.25 7 3.051
    endloop
  endfacet
  facet normal 0 0 1
    outer loop
      vertex 1.25 -8 3.051
      vertex -1.25 7 3.051
      vertex -1.25 -8 3.051
    endloop
  endfacet
  facet normal 1 -0 0
    outer loop
      vertex -1.25 -8 4.751
      vertex -1.25 7 3.051
      vertex -1.25 7 4.751
    endloop
  endfacet
  facet normal 1 0 0
    outer loop
      vertex -1.25 7 3.051
      vertex -1.25 -8 4.751
      vertex -1.25 -8 3.051
    endloop
  endfacet
  facet normal 0 -1 0
    outer loop
      vertex -1.25 7 3.051
      vertex 1.25 7 4.751
      vertex -1.25 7 4.751
    endloop
  endfacet
  facet normal 0 -1 -0
    outer loop
      vertex 1.25 7 4.751
      vertex -1.25 7 3.051
      vertex 1.25 7 3.051
    endloop
  endfacet
  facet normal 0 1 -0
    outer loop
      vertex 1.25 -8 3.051
      vertex -1.25 -8 4.751
      vertex 1.25 -8 4.751
    endloop
  endfacet
  facet normal 0 1 0
    outer loop
      vertex -1.25 -8 4.751
      vertex 1.25 -8 3.051
      vertex -1.25 -8 3.051
    endloop
  endfacet
  facet normal 0 1 -0
    outer loop
      vertex 11.3051 14 -2
      vertex -11.3051 14 0
      vertex 11.3051 14 0
    endloop
  endfacet
  facet normal 0 1 0
    outer loop
      vertex -11.3051 14 0
      vertex 11.3051 14 -2
      vertex -11.3051 14 -2
    endloop
  endfacet
endsolid OpenSCAD_Model
